<svg width="28" height="28" viewBox="0 0 28 28" fill="none" xmlns="http://www.w3.org/2000/svg">
<mask id="mask0_129_129" style="mask-type:alpha" maskUnits="userSpaceOnUse" x="0" y="0" width="28" height="28">
<rect width="28" height="28" fill="#27AE60"/>
</mask>
<g mask="url(#mask0_129_129)">
<path d="M9.8 24.5C8.03056 24.5 6.53819 23.8924 5.32292 22.6771C4.10764 21.4618 3.5 19.9694 3.5 18.2C3.5 17.4611 3.62639 16.7417 3.87917 16.0417C4.13194 15.3417 4.49167 14.7097 4.95833 14.1458L9.1 9.15833L6.27083 3.5H21.7292L18.9 9.15833L23.0417 14.1458C23.5083 14.7097 23.8681 15.3417 24.1208 16.0417C24.3736 16.7417 24.5 17.4611 24.5 18.2C24.5 19.9694 23.8875 21.4618 22.6625 22.6771C21.4375 23.8924 19.95 24.5 18.2 24.5H9.8ZM14 18.6667C13.3583 18.6667 12.809 18.4382 12.3521 17.9812C11.8951 17.5243 11.6667 16.975 11.6667 16.3333C11.6667 15.6917 11.8951 15.1424 12.3521 14.6854C12.809 14.2285 13.3583 14 14 14C14.6417 14 15.191 14.2285 15.6479 14.6854C16.1049 15.1424 16.3333 15.6917 16.3333 16.3333C16.3333 16.975 16.1049 17.5243 15.6479 17.9812C15.191 18.4382 14.6417 18.6667 14 18.6667ZM11.2292 8.16667H16.7708L17.9375 5.83333H10.0625L11.2292 8.16667ZM9.8 22.1667H18.2C19.3083 22.1667 20.2465 21.7826 21.0146 21.0146C21.7826 20.2465 22.1667 19.3083 22.1667 18.2C22.1667 17.7333 22.084 17.2812 21.9188 16.8438C21.7535 16.4062 21.525 16.0125 21.2333 15.6625L16.9458 10.5H11.0833L6.76667 15.6333C6.475 15.9833 6.24653 16.3819 6.08125 16.8292C5.91597 17.2764 5.83333 17.7333 5.83333 18.2C5.83333 19.3083 6.21736 20.2465 6.98542 21.0146C7.75347 21.7826 8.69167 22.1667 9.8 22.1667Z" fill="black"/>
</g>
</svg>
