<svg width="20" height="15" viewBox="0 0 20 15" fill="none" xmlns="http://www.w3.org/2000/svg">
<path d="M1 6.36401C0.447715 6.36401 4.82823e-08 6.81173 0 7.36401C-4.82823e-08 7.9163 0.447715 8.36401 1 8.36401L1 7.36401L1 6.36401ZM19.7071 8.07112C20.0976 7.6806 20.0976 7.04743 19.7071 6.65691L13.3431 0.292947C12.9526 -0.0975775 12.3195 -0.0975775 11.9289 0.292947C11.5384 0.683471 11.5384 1.31664 11.9289 1.70716L17.5858 7.36402L11.9289 13.0209C11.5384 13.4114 11.5384 14.0446 11.9289 14.4351C12.3195 14.8256 12.9526 14.8256 13.3431 14.4351L19.7071 8.07112ZM1 7.36401L1 8.36401L19 8.36402L19 7.36402L19 6.36402L1 6.36401L1 7.36401Z" fill="#1A3C53"/>
</svg>
