<svg width="67" height="60" viewBox="0 0 67 60" fill="none" xmlns="http://www.w3.org/2000/svg">
<path d="M66.4466 34.7344L62.8841 6.23438C62.6671 4.51215 61.8289 2.92837 60.5268 1.78044C59.2247 0.632514 57.5483 -0.000595409 55.8125 4.20175e-07H4.75C3.49022 4.20175e-07 2.28204 0.500445 1.39124 1.39124C0.500445 2.28204 0 3.49022 0 4.75V30.875C0 32.1348 0.500445 33.343 1.39124 34.2338C2.28204 35.1246 3.49022 35.625 4.75 35.625H17.5334L28.7494 58.0628C28.9468 58.4574 29.2503 58.7892 29.6257 59.0209C30.0012 59.2527 30.4338 59.3753 30.875 59.375C34.0244 59.375 37.0449 58.1239 39.2719 55.8969C41.4989 53.6699 42.75 50.6494 42.75 47.5V42.75H59.375C60.3861 42.7503 61.3856 42.5355 62.3073 42.1197C63.2289 41.704 64.0515 41.0968 64.7204 40.3387C65.3893 39.5805 65.8891 38.6886 66.1868 37.7223C66.4844 36.7561 66.5729 35.7375 66.4466 34.7344ZM16.625 30.875H4.75V4.75H16.625V30.875ZM61.1562 37.1955C60.9349 37.4501 60.6611 37.6538 60.3537 37.7927C60.0462 37.9315 59.7124 38.0023 59.375 38H40.375C39.7451 38 39.141 38.2502 38.6956 38.6956C38.2502 39.141 38 39.7451 38 40.375V47.5C38.0005 49.1473 37.4301 50.7439 36.386 52.018C35.3419 53.2922 33.8885 54.1652 32.2733 54.4884L21.375 32.6889V4.75H55.8125C56.3911 4.7498 56.9499 4.96084 57.3839 5.34348C57.8179 5.72612 58.0974 6.25405 58.1697 6.82813L61.7322 35.3281C61.7767 35.6625 61.7482 36.0026 61.6488 36.3249C61.5494 36.6472 61.3814 36.9442 61.1562 37.1955Z" fill="black"/>
</svg>
