<svg width="28" height="29" viewBox="0 0 28 29" fill="none" xmlns="http://www.w3.org/2000/svg">
<mask id="mask0_1_642" style="mask-type:alpha" maskUnits="userSpaceOnUse" x="0" y="0" width="28" height="29">
<rect y="0.68689" width="28" height="28" fill="#27AE60"/>
</mask>
<g mask="url(#mask0_1_642)">
<path d="M9.8 25.1869C8.03056 25.1869 6.53819 24.5793 5.32292 23.364C4.10764 22.1487 3.5 20.6563 3.5 18.8869C3.5 18.148 3.62639 17.4286 3.87917 16.7286C4.13194 16.0286 4.49167 15.3966 4.95833 14.8327L9.1 9.84522L6.27083 4.18689H21.7292L18.9 9.84522L23.0417 14.8327C23.5083 15.3966 23.8681 16.0286 24.1208 16.7286C24.3736 17.4286 24.5 18.148 24.5 18.8869C24.5 20.6563 23.8875 22.1487 22.6625 23.364C21.4375 24.5793 19.95 25.1869 18.2 25.1869H9.8ZM14 19.3536C13.3583 19.3536 12.809 19.1251 12.3521 18.6681C11.8951 18.2112 11.6667 17.6619 11.6667 17.0202C11.6667 16.3786 11.8951 15.8293 12.3521 15.3723C12.809 14.9154 13.3583 14.6869 14 14.6869C14.6417 14.6869 15.191 14.9154 15.6479 15.3723C16.1049 15.8293 16.3333 16.3786 16.3333 17.0202C16.3333 17.6619 16.1049 18.2112 15.6479 18.6681C15.191 19.1251 14.6417 19.3536 14 19.3536ZM11.2292 8.85356H16.7708L17.9375 6.52022H10.0625L11.2292 8.85356ZM9.8 22.8536H18.2C19.3083 22.8536 20.2465 22.4695 21.0146 21.7015C21.7826 20.9334 22.1667 19.9952 22.1667 18.8869C22.1667 18.4202 22.084 17.9681 21.9188 17.5306C21.7535 17.0931 21.525 16.6994 21.2333 16.3494L16.9458 11.1869H11.0833L6.76667 16.3202C6.475 16.6702 6.24653 17.0688 6.08125 17.5161C5.91597 17.9633 5.83333 18.4202 5.83333 18.8869C5.83333 19.9952 6.21736 20.9334 6.98542 21.7015C7.75347 22.4695 8.69167 22.8536 9.8 22.8536Z" fill="#D7D7D7"/>
</g>
</svg>
