<?xml version="1.0" encoding="UTF-8"?>
<svg id="Layer_2" data-name="Layer 2" xmlns="http://www.w3.org/2000/svg" xmlns:xlink="http://www.w3.org/1999/xlink" viewBox="0 0 1522.42 239.54">
  <defs>
    <style>
      .cls-1 {
        fill: #20efa4;
        filter: url(#drop-shadow-1);
      }

      .cls-2 {
        fill: #fff;
      }

      .cls-3 {
        fill: none;
      }

      .cls-4 {
        fill: #87b9d6;
      }

      .cls-5 {
        fill: url(#linear-gradient);
        opacity: .33;
      }

      .cls-6 {
        clip-path: url(#clippath);
      }
    </style>
    <linearGradient id="linear-gradient" x1="202.85" y1="61.21" x2="208.34" y2="55.72" gradientUnits="userSpaceOnUse">
      <stop offset=".23" stop-color="#5bafaf"/>
      <stop offset=".55" stop-color="#59acae"/>
      <stop offset=".72" stop-color="#53a5ac"/>
      <stop offset=".84" stop-color="#4997aa"/>
      <stop offset=".95" stop-color="#3c84a6"/>
      <stop offset="1" stop-color="#347aa4"/>
    </linearGradient>
    <clipPath id="clippath">
      <polygon class="cls-3" points="145.77 0 165.45 0 224.02 59.28 224.02 86.01 128.82 86.01 128.82 0 145.77 0"/>
    </clipPath>
    <filter id="drop-shadow-1" x="146.46" y="-14.68" width="95" height="95" filterUnits="userSpaceOnUse">
      <feOffset dx="-1.04" dy="2.6"/>
      <feGaussianBlur result="blur" stdDeviation="5.72"/>
      <feFlood flood-color="#082b2a" flood-opacity=".22"/>
      <feComposite in2="blur" operator="in"/>
      <feComposite in="SourceGraphic"/>
    </filter>
  </defs>
  <g id="Layer_1-2" data-name="Layer 1">
    <g>
      <g>
        <path class="cls-2" d="M324.74,190.97V34.6h62.92c15.3,0,27.39,3.79,36.28,11.38,8.88,7.58,13.32,18.96,13.32,34.12s-4.51,25.86-13.53,34.12c-9.02,8.27-21.04,12.4-36.07,12.4h-38.73v64.35h-24.18ZM384.38,105.51c9.29,0,16.43-2.12,21.42-6.35,4.99-4.23,7.48-10.38,7.48-18.44s-2.5-13.8-7.48-18.04c-4.99-4.23-12.13-6.35-21.42-6.35h-35.46v49.19h35.46Z"/>
        <path class="cls-2" d="M457.14,190.97v-114.15h22.54v14.55c4.64-6.01,9.77-10.31,15.37-12.91,5.6-2.59,12.09-3.89,19.47-3.89h2.25v22.13h-6.15c-9.16,0-16.26,2.53-21.31,7.58-6.42,6.15-9.63,16.26-9.63,30.33v56.36h-22.54Z"/>
        <path class="cls-2" d="M553.87,185.54c-8.61-5.12-15.3-12.16-20.08-21.11-4.78-8.95-7.17-18.96-7.17-30.02,0-10.38,2.15-20.15,6.46-29.31,4.3-9.15,10.69-16.53,19.16-22.13,8.47-5.6,18.65-8.4,30.54-8.4,10.11,0,19.43,2.19,27.98,6.56,8.54,4.38,15.4,10.9,20.6,19.57,5.19,8.68,7.79,19.23,7.79,31.66v6.15h-89.56c.41,4.51,1.5,8.61,3.28,12.3,2.73,6.97,6.83,12.5,12.3,16.6,5.46,4.1,11.68,6.15,18.65,6.15s13.46-1.88,18.65-5.64c5.19-3.76,8.95-8.57,11.27-14.45h23.57c-3.83,11.75-10.28,21.31-19.37,28.69-9.09,7.38-20.6,11.07-34.53,11.07-11.07,0-20.9-2.56-29.51-7.68ZM615.76,120.26c-.55-4.23-1.71-7.85-3.48-10.86-2.74-5.19-6.66-9.19-11.78-11.99-5.12-2.8-10.76-4.2-16.91-4.2s-12.09,1.4-17.01,4.2c-4.92,2.8-8.81,6.8-11.68,11.99-1.64,2.74-2.94,6.35-3.89,10.86h64.76Z"/>
        <path class="cls-2" d="M681.34,185.74c-7.65-4.99-13.56-11.99-17.73-21.01-4.17-9.02-6.25-19.27-6.25-30.74s2.08-21.93,6.25-30.95c4.17-9.02,10.07-16.02,17.73-21.01,7.65-4.99,16.46-7.48,26.44-7.48,7.51,0,13.94,1.33,19.26,4s10.52,7.41,15.58,14.24v-58.21h22.54v156.37h-22.54v-16.19c-5.06,6.83-10.25,11.61-15.58,14.35s-11.75,4.1-19.26,4.1c-9.98,0-18.79-2.49-26.44-7.48ZM728.79,168.53c4.99-3.35,8.88-8.02,11.68-14.04,2.8-6.01,4.2-12.84,4.2-20.49s-1.4-14.52-4.2-20.6c-2.8-6.08-6.7-10.79-11.68-14.14-4.99-3.35-10.62-5.02-16.91-5.02-9.7,0-17.46,3.72-23.26,11.17-5.81,7.45-8.71,16.98-8.71,28.59s2.9,21.11,8.71,28.49c5.81,7.38,13.56,11.07,23.26,11.07,6.28,0,11.92-1.67,16.91-5.02Z"/>
        <path class="cls-2" d="M793.04,56.73c-3.01-2.73-4.51-6.15-4.51-10.25s1.5-7.51,4.51-10.25c3-2.73,6.56-4.1,10.66-4.1s7.82,1.37,10.76,4.1c2.94,2.74,4.41,6.15,4.41,10.25s-1.47,7.52-4.41,10.25c-2.94,2.73-6.53,4.1-10.76,4.1s-7.65-1.36-10.66-4.1ZM814.97,190.97h-22.54v-114.15h22.54v114.15Z"/>
        <path class="cls-2" d="M864.46,185.64c-8.54-5.05-15.2-12.12-19.98-21.21-4.78-9.08-7.17-19.43-7.17-31.05s2.39-21.45,7.17-30.33c4.78-8.88,11.44-15.85,19.98-20.9,8.54-5.05,18.34-7.58,29.41-7.58,13.25,0,24.49,3.42,33.71,10.25,9.22,6.83,15.2,15.99,17.93,27.46h-24.18c-2.05-5.87-5.47-10.45-10.25-13.73-4.78-3.28-10.52-4.92-17.21-4.92s-12.37,1.67-17.42,5.02c-5.06,3.35-9.02,8.03-11.89,14.04-2.87,6.01-4.3,12.91-4.3,20.7s1.43,15.17,4.3,21.31,6.83,10.93,11.89,14.35c5.05,3.42,10.86,5.12,17.42,5.12,7.1,0,13.15-1.88,18.14-5.64,4.99-3.76,8.3-8.78,9.94-15.06h24.39c-2.6,12.3-8.64,22-18.14,29.1-9.5,7.11-20.94,10.66-34.33,10.66-11.07,0-20.87-2.53-29.41-7.58Z"/>
        <path class="cls-2" d="M1003.31,190.97c-8.88,0-15.58-2.05-20.08-6.15s-6.76-11-6.76-20.7v-68.45h-17.62v-18.86h17.62v-42.22h22.54v42.22h23.77v18.86h-23.77v62.51c0,4.78.68,8.27,2.05,10.45,1.36,2.19,4.51,3.28,9.43,3.28h12.09v19.06h-19.26Z"/>
        <path class="cls-2" d="M1069.09,190.97h-24.18V34.6h102.88v21.72h-78.7v45.5h69.89v21.52h-69.89v67.63Z"/>
        <path class="cls-2" d="M1185.6,185.64c-8.68-5.05-15.44-12.12-20.29-21.21-4.85-9.08-7.28-19.43-7.28-31.05s2.42-21.45,7.28-30.33c4.85-8.88,11.61-15.85,20.29-20.9,8.68-5.05,18.55-7.58,29.62-7.58s20.94,2.53,29.61,7.58c8.67,5.06,15.44,12.02,20.29,20.9,4.85,8.88,7.28,18.99,7.28,30.33s-2.39,21.76-7.17,30.84c-4.78,9.09-11.51,16.19-20.19,21.31-8.68,5.12-18.62,7.68-29.82,7.68s-20.94-2.53-29.62-7.58ZM1232.84,168.43c5.19-3.41,9.25-8.2,12.19-14.35,2.94-6.15,4.41-13.05,4.41-20.7s-1.47-14.04-4.41-19.98c-2.94-5.94-7-10.62-12.19-14.04-5.19-3.41-11.07-5.12-17.62-5.12s-12.43,1.67-17.63,5.02c-5.19,3.35-9.26,7.99-12.19,13.94-2.94,5.94-4.41,12.67-4.41,20.19s1.47,14.72,4.41,20.8c2.94,6.08,7,10.83,12.19,14.24,5.19,3.42,11.07,5.12,17.63,5.12s12.43-1.71,17.62-5.12Z"/>
        <path class="cls-2" d="M1321.38,190.97c-8.88,0-15.58-2.05-20.08-6.15s-6.76-11-6.76-20.7V34.6h22.54v123.99c0,4.78.75,8.2,2.25,10.25,1.5,2.05,4.58,3.07,9.22,3.07h6.35v19.06h-13.53Z"/>
        <path class="cls-2" d="M1354.78,56.73c-3.01-2.73-4.51-6.15-4.51-10.25s1.5-7.51,4.51-10.25c3-2.73,6.56-4.1,10.66-4.1s7.82,1.37,10.76,4.1c2.94,2.74,4.41,6.15,4.41,10.25s-1.47,7.52-4.41,10.25c-2.94,2.73-6.53,4.1-10.76,4.1s-7.65-1.36-10.66-4.1ZM1376.71,190.97h-22.54v-114.15h22.54v114.15Z"/>
        <path class="cls-2" d="M1426.61,185.64c-8.68-5.05-15.44-12.12-20.29-21.21-4.85-9.08-7.28-19.43-7.28-31.05s2.42-21.45,7.28-30.33c4.85-8.88,11.61-15.85,20.29-20.9,8.67-5.05,18.55-7.58,29.61-7.58s20.94,2.53,29.61,7.58c8.68,5.06,15.44,12.02,20.29,20.9,4.85,8.88,7.28,18.99,7.28,30.33s-2.39,21.76-7.17,30.84c-4.78,9.09-11.51,16.19-20.19,21.31-8.68,5.12-18.62,7.68-29.82,7.68s-20.94-2.53-29.61-7.58ZM1473.85,168.43c5.19-3.41,9.25-8.2,12.19-14.35,2.94-6.15,4.41-13.05,4.41-20.7s-1.47-14.04-4.41-19.98c-2.94-5.94-7-10.62-12.19-14.04-5.19-3.41-11.07-5.12-17.62-5.12s-12.43,1.67-17.62,5.02c-5.19,3.35-9.26,7.99-12.19,13.94-2.94,5.94-4.41,12.67-4.41,20.19s1.47,14.72,4.41,20.8c2.94,6.08,7,10.83,12.19,14.24,5.19,3.42,11.07,5.12,17.62,5.12s12.43-1.71,17.62-5.12Z"/>
      </g>
      <g>
        <path class="cls-2" d="M224.01,59.27h-8.73v-2.84s0,1.15,0,1.15l-16.63-1.15v-.92l-.21.94v56.32c0,77.41-8.25,85.66-85.66,85.66h-1.53c-77.41,0-85.66-8.25-85.66-85.66v-1.53c0-77.41,8.25-85.66,85.66-85.66h56.34v-1.65s0-15.2,0-15.2h-2.13s0-8.73,0-8.73h0S110.59,0,110.59,0C49.34,0,21.63,4.01,9.36,30.11,1.6,46.6,0,71.9,0,110.59v2.85c0,99.94,10.65,110.59,110.59,110.59h2.85c35.46,0,59.67-1.35,76.16-7.54,29.98-11.26,34.42-38.57,34.42-103.04v-54.15h0Z"/>
        <polygon class="cls-4" points="205.75 58.69 205.98 58.73 205.98 59.27 205.75 59.27 205.75 58.69"/>
        <polygon class="cls-5" points="205.75 57.11 205.98 58.15 205.98 59.27 205.75 59.27 205.75 57.11"/>
        <g class="cls-6">
          <path class="cls-1" d="M205.58,40.62c0,.18.02.35.02.53-.02-.19-.04-.37-.06-.56l-21.86-22.13-1.49-1.5L165.45,0v16.49s0,1.79,0,1.79v13.51c0,13.03.94,19.99,5.56,23.64,3.98,3.15,10.7,3.85,21.93,3.85h31.08s-18.43-18.66-18.43-18.66Z"/>
        </g>
        <path class="cls-2" d="M88.77,149.74c9.19,3.38,18.99,6.81,28.73,5.26,4.34-.57,8.76-1.97,12.9-3.53,1.65-.57,3.14-1.22,4.89-1.75,1.01-.37,2.15.18,2.45,1.23.13.44.09.89-.09,1.28-4.33,9.64-14.96,16.04-25.71,15.74-10.74-.29-20.95-6.21-25.72-15.75-.72-1.63.94-3.17,2.54-2.48h0Z"/>
        <ellipse class="cls-2" cx="69.93" cy="90.63" rx="15.58" ry="19.86"/>
        <path class="cls-2" d="M154.77,113.21c-1.6,0-3.22-.54-4.55-1.64l-17.55-14.48c-1.65-1.36-2.6-3.39-2.6-5.52s.95-4.16,2.6-5.52l18.59-15.34c3.05-2.52,7.56-2.08,10.08.97,2.52,3.05,2.08,7.56-.97,10.08l-11.89,9.81,10.85,8.95c3.05,2.52,3.48,7.03.97,10.08-1.42,1.72-3.46,2.6-5.53,2.6Z"/>
      </g>
    </g>
  </g>
</svg>