<svg width="538" height="122" viewBox="0 0 538 122" fill="none" xmlns="http://www.w3.org/2000/svg">
<path d="M164.309 78.1364V55.6364H166.738V58.2358H167.036C167.221 57.9517 167.477 57.5895 167.803 57.1491C168.137 56.7017 168.613 56.304 169.231 55.956C169.856 55.6009 170.701 55.4233 171.766 55.4233C173.144 55.4233 174.359 55.7678 175.41 56.4567C176.461 57.1456 177.281 58.1222 177.871 59.3864C178.46 60.6506 178.755 62.142 178.755 63.8608C178.755 65.5938 178.46 67.0959 177.871 68.3672C177.281 69.6314 176.464 70.6115 175.42 71.3075C174.376 71.9964 173.173 72.3409 171.809 72.3409C170.758 72.3409 169.916 72.1669 169.284 71.8189C168.652 71.4638 168.165 71.0625 167.825 70.6151C167.484 70.1605 167.221 69.7841 167.036 69.4858H166.823V78.1364H164.309ZM166.781 63.8182C166.781 65.054 166.962 66.1442 167.324 67.0888C167.686 68.0263 168.215 68.7614 168.911 69.294C169.607 69.8196 170.46 70.0824 171.468 70.0824C172.519 70.0824 173.396 69.8054 174.099 69.2514C174.81 68.6903 175.342 67.9375 175.697 66.9929C176.06 66.0412 176.241 64.983 176.241 63.8182C176.241 62.6676 176.063 61.6307 175.708 60.7074C175.36 59.777 174.831 59.0419 174.121 58.5021C173.418 57.9553 172.533 57.6818 171.468 57.6818C170.445 57.6818 169.586 57.9411 168.89 58.4595C168.194 58.9709 167.668 59.6882 167.313 60.6115C166.958 61.5277 166.781 62.5966 166.781 63.8182ZM182.59 72V55.6364H185.019V58.108H185.19C185.488 57.2983 186.028 56.6413 186.809 56.1371C187.59 55.6328 188.471 55.3807 189.451 55.3807C189.636 55.3807 189.866 55.3842 190.143 55.3913C190.42 55.3984 190.63 55.4091 190.772 55.4233V57.9801C190.687 57.9588 190.491 57.9268 190.186 57.8842C189.888 57.8345 189.572 57.8097 189.238 57.8097C188.442 57.8097 187.732 57.9766 187.107 58.3104C186.489 58.6371 185.999 59.0916 185.637 59.674C185.282 60.2493 185.104 60.9062 185.104 61.6449V72H182.59ZM200.115 72.3409C198.538 72.3409 197.178 71.9929 196.035 71.2969C194.898 70.5938 194.021 69.6136 193.403 68.3565C192.793 67.0923 192.487 65.6222 192.487 63.946C192.487 62.2699 192.793 60.7926 193.403 59.5142C194.021 58.2287 194.881 57.2273 195.982 56.5099C197.089 55.7855 198.382 55.4233 199.859 55.4233C200.712 55.4233 201.553 55.5653 202.384 55.8494C203.215 56.1335 203.972 56.5952 204.653 57.2344C205.335 57.8665 205.879 58.7045 206.283 59.7486C206.688 60.7926 206.891 62.0781 206.891 63.6051V64.6705H194.277V62.4972H204.334C204.334 61.5739 204.149 60.75 203.78 60.0256C203.418 59.3011 202.899 58.7294 202.224 58.3104C201.557 57.8913 200.768 57.6818 199.859 57.6818C198.858 57.6818 197.991 57.9304 197.26 58.4276C196.536 58.9176 195.978 59.5568 195.587 60.3452C195.197 61.1335 195.001 61.9787 195.001 62.8807V64.3295C195.001 65.5653 195.214 66.6129 195.641 67.4723C196.074 68.3246 196.674 68.9744 197.441 69.4219C198.208 69.8622 199.099 70.0824 200.115 70.0824C200.776 70.0824 201.372 69.9901 201.905 69.8054C202.445 69.6136 202.91 69.3295 203.3 68.9531C203.691 68.5696 203.993 68.0937 204.206 67.5256L206.635 68.2074C206.379 69.0312 205.95 69.7557 205.346 70.3807C204.742 70.9986 203.996 71.4815 203.109 71.8295C202.221 72.1705 201.223 72.3409 200.115 72.3409ZM216.894 72.3409C215.531 72.3409 214.327 71.9964 213.283 71.3075C212.239 70.6115 211.422 69.6314 210.832 68.3672C210.243 67.0959 209.948 65.5938 209.948 63.8608C209.948 62.142 210.243 60.6506 210.832 59.3864C211.422 58.1222 212.242 57.1456 213.293 56.4567C214.344 55.7678 215.559 55.4233 216.937 55.4233C218.002 55.4233 218.844 55.6009 219.462 55.956C220.087 56.304 220.563 56.7017 220.889 57.1491C221.223 57.5895 221.482 57.9517 221.667 58.2358H221.88V50.1818H224.394V72H221.965V69.4858H221.667C221.482 69.7841 221.219 70.1605 220.879 70.6151C220.538 71.0625 220.051 71.4638 219.419 71.8189C218.787 72.1669 217.945 72.3409 216.894 72.3409ZM217.235 70.0824C218.244 70.0824 219.096 69.8196 219.792 69.294C220.488 68.7614 221.017 68.0263 221.379 67.0888C221.741 66.1442 221.923 65.054 221.923 63.8182C221.923 62.5966 221.745 61.5277 221.39 60.6115C221.035 59.6882 220.509 58.9709 219.813 58.4595C219.117 57.9411 218.258 57.6818 217.235 57.6818C216.17 57.6818 215.282 57.9553 214.572 58.5021C213.869 59.0419 213.339 59.777 212.984 60.7074C212.636 61.6307 212.462 62.6676 212.462 63.8182C212.462 64.983 212.64 66.0412 212.995 66.9929C213.357 67.9375 213.89 68.6903 214.593 69.2514C215.303 69.8054 216.184 70.0824 217.235 70.0824ZM229.348 72V55.6364H231.862V72H229.348ZM230.626 52.9091C230.136 52.9091 229.714 52.7422 229.359 52.4084C229.011 52.0746 228.837 51.6733 228.837 51.2045C228.837 50.7358 229.011 50.3345 229.359 50.0007C229.714 49.6669 230.136 49.5 230.626 49.5C231.116 49.5 231.536 49.6669 231.884 50.0007C232.239 50.3345 232.416 50.7358 232.416 51.2045C232.416 51.6733 232.239 52.0746 231.884 52.4084C231.536 52.7422 231.116 52.9091 230.626 52.9091ZM243.115 72.3409C241.581 72.3409 240.26 71.9787 239.152 71.2543C238.044 70.5298 237.192 69.532 236.595 68.2607C235.998 66.9893 235.7 65.5369 235.7 63.9034C235.7 62.2415 236.006 60.7749 236.616 59.5036C237.234 58.2251 238.094 57.2273 239.194 56.5099C240.302 55.7855 241.595 55.4233 243.072 55.4233C244.223 55.4233 245.26 55.6364 246.183 56.0625C247.106 56.4886 247.863 57.0852 248.452 57.8523C249.042 58.6193 249.407 59.5142 249.55 60.5369H247.035C246.844 59.7912 246.417 59.1307 245.757 58.5554C245.104 57.973 244.223 57.6818 243.115 57.6818C242.135 57.6818 241.275 57.9375 240.537 58.4489C239.805 58.9531 239.233 59.6669 238.822 60.5902C238.417 61.5064 238.214 62.5824 238.214 63.8182C238.214 65.0824 238.413 66.1832 238.811 67.1207C239.216 68.0582 239.784 68.7862 240.515 69.3047C241.254 69.8232 242.121 70.0824 243.115 70.0824C243.768 70.0824 244.361 69.9688 244.894 69.7415C245.427 69.5142 245.878 69.1875 246.247 68.7614C246.616 68.3352 246.879 67.8239 247.035 67.2273H249.55C249.407 68.1932 249.056 69.0632 248.495 69.8374C247.941 70.6044 247.206 71.2152 246.29 71.6697C245.381 72.1172 244.322 72.3409 243.115 72.3409ZM260.341 55.6364V57.767H251.861V55.6364H260.341ZM254.333 51.7159H256.847V67.3125C256.847 68.0227 256.95 68.5554 257.156 68.9105C257.369 69.2585 257.639 69.4929 257.966 69.6136C258.3 69.7273 258.651 69.7841 259.02 69.7841C259.297 69.7841 259.525 69.7699 259.702 69.7415C259.88 69.706 260.022 69.6776 260.128 69.6562L260.64 71.9148C260.469 71.9787 260.231 72.0426 259.926 72.1065C259.621 72.1776 259.233 72.2131 258.765 72.2131C258.055 72.2131 257.358 72.0604 256.677 71.755C256.002 71.4496 255.441 70.9844 254.993 70.3594C254.553 69.7344 254.333 68.946 254.333 67.9943V51.7159ZM271.41 55.6364V57.767H262.589V55.6364H271.41ZM265.231 72V53.3778C265.231 52.4403 265.452 51.6591 265.892 51.0341C266.332 50.4091 266.904 49.9403 267.607 49.6278C268.31 49.3153 269.052 49.1591 269.834 49.1591C270.452 49.1591 270.956 49.2088 271.346 49.3082C271.737 49.4077 272.028 49.5 272.22 49.5852L271.496 51.7585C271.368 51.7159 271.19 51.6626 270.963 51.5987C270.743 51.5348 270.452 51.5028 270.089 51.5028C269.258 51.5028 268.658 51.7124 268.289 52.1314C267.927 52.5504 267.746 53.1648 267.746 53.9744V72H265.231ZM280.908 72.3409C279.431 72.3409 278.134 71.9893 277.019 71.2862C275.911 70.5831 275.045 69.5994 274.42 68.3352C273.802 67.071 273.493 65.5937 273.493 63.9034C273.493 62.1989 273.802 60.7109 274.42 59.4396C275.045 58.1683 275.911 57.1811 277.019 56.478C278.134 55.7749 279.431 55.4233 280.908 55.4233C282.385 55.4233 283.678 55.7749 284.786 56.478C285.901 57.1811 286.767 58.1683 287.385 59.4396C288.01 60.7109 288.323 62.1989 288.323 63.9034C288.323 65.5937 288.01 67.071 287.385 68.3352C286.767 69.5994 285.901 70.5831 284.786 71.2862C283.678 71.9893 282.385 72.3409 280.908 72.3409ZM280.908 70.0824C282.03 70.0824 282.953 69.7947 283.678 69.2195C284.402 68.6442 284.938 67.8878 285.286 66.9503C285.634 66.0128 285.808 64.9972 285.808 63.9034C285.808 62.8097 285.634 61.7905 285.286 60.8459C284.938 59.9013 284.402 59.1378 283.678 58.5554C282.953 57.973 282.03 57.6818 280.908 57.6818C279.786 57.6818 278.862 57.973 278.138 58.5554C277.414 59.1378 276.877 59.9013 276.529 60.8459C276.181 61.7905 276.007 62.8097 276.007 63.9034C276.007 64.9972 276.181 66.0128 276.529 66.9503C276.877 67.8878 277.414 68.6442 278.138 69.2195C278.862 69.7947 279.786 70.0824 280.908 70.0824ZM294.675 50.1818V72H292.161V50.1818H294.675ZM299.28 72V55.6364H301.794V72H299.28ZM300.558 52.9091C300.068 52.9091 299.645 52.7422 299.29 52.4084C298.942 52.0746 298.768 51.6733 298.768 51.2045C298.768 50.7358 298.942 50.3345 299.29 50.0007C299.645 49.6669 300.068 49.5 300.558 49.5C301.048 49.5 301.467 49.6669 301.815 50.0007C302.17 50.3345 302.348 50.7358 302.348 51.2045C302.348 51.6733 302.17 52.0746 301.815 52.4084C301.467 52.7422 301.048 52.9091 300.558 52.9091ZM313.047 72.3409C311.569 72.3409 310.273 71.9893 309.158 71.2862C308.05 70.5831 307.184 69.5994 306.559 68.3352C305.941 67.071 305.632 65.5937 305.632 63.9034C305.632 62.1989 305.941 60.7109 306.559 59.4396C307.184 58.1683 308.05 57.1811 309.158 56.478C310.273 55.7749 311.569 55.4233 313.047 55.4233C314.524 55.4233 315.816 55.7749 316.924 56.478C318.039 57.1811 318.906 58.1683 319.524 59.4396C320.149 60.7109 320.461 62.1989 320.461 63.9034C320.461 65.5937 320.149 67.071 319.524 68.3352C318.906 69.5994 318.039 70.5831 316.924 71.2862C315.816 71.9893 314.524 72.3409 313.047 72.3409ZM313.047 70.0824C314.169 70.0824 315.092 69.7947 315.816 69.2195C316.541 68.6442 317.077 67.8878 317.425 66.9503C317.773 66.0128 317.947 64.9972 317.947 63.9034C317.947 62.8097 317.773 61.7905 317.425 60.8459C317.077 59.9013 316.541 59.1378 315.816 58.5554C315.092 57.973 314.169 57.6818 313.047 57.6818C311.924 57.6818 311.001 57.973 310.277 58.5554C309.552 59.1378 309.016 59.9013 308.668 60.8459C308.32 61.7905 308.146 62.8097 308.146 63.9034C308.146 64.9972 308.32 66.0128 308.668 66.9503C309.016 67.8878 309.552 68.6442 310.277 69.2195C311.001 69.7947 311.924 70.0824 313.047 70.0824ZM326.132 72.1705C325.606 72.1705 325.155 71.9822 324.779 71.6058C324.402 71.2294 324.214 70.7784 324.214 70.2528C324.214 69.7273 324.402 69.2763 324.779 68.8999C325.155 68.5234 325.606 68.3352 326.132 68.3352C326.657 68.3352 327.108 68.5234 327.485 68.8999C327.861 69.2763 328.049 69.7273 328.049 70.2528C328.049 70.6009 327.96 70.9205 327.783 71.2116C327.612 71.5028 327.382 71.7372 327.09 71.9148C326.806 72.0852 326.487 72.1705 326.132 72.1705ZM339.209 72.3409C337.675 72.3409 336.354 71.9787 335.246 71.2543C334.138 70.5298 333.285 69.532 332.689 68.2607C332.092 66.9893 331.794 65.5369 331.794 63.9034C331.794 62.2415 332.099 60.7749 332.71 59.5036C333.328 58.2251 334.187 57.2273 335.288 56.5099C336.396 55.7855 337.689 55.4233 339.166 55.4233C340.317 55.4233 341.354 55.6364 342.277 56.0625C343.2 56.4886 343.956 57.0852 344.546 57.8523C345.135 58.6193 345.501 59.5142 345.643 60.5369H343.129C342.937 59.7912 342.511 59.1307 341.851 58.5554C341.197 57.973 340.317 57.6818 339.209 57.6818C338.229 57.6818 337.369 57.9375 336.631 58.4489C335.899 58.9531 335.327 59.6669 334.915 60.5902C334.51 61.5064 334.308 62.5824 334.308 63.8182C334.308 65.0824 334.507 66.1832 334.905 67.1207C335.309 68.0582 335.878 68.7862 336.609 69.3047C337.348 69.8232 338.214 70.0824 339.209 70.0824C339.862 70.0824 340.455 69.9688 340.988 69.7415C341.52 69.5142 341.971 69.1875 342.341 68.7614C342.71 68.3352 342.973 67.8239 343.129 67.2273H345.643C345.501 68.1932 345.15 69.0632 344.589 69.8374C344.035 70.6044 343.3 71.2152 342.383 71.6697C341.474 72.1172 340.416 72.3409 339.209 72.3409ZM355.966 72.3409C354.489 72.3409 353.193 71.9893 352.078 71.2862C350.97 70.5831 350.104 69.5994 349.479 68.3352C348.861 67.071 348.552 65.5937 348.552 63.9034C348.552 62.1989 348.861 60.7109 349.479 59.4396C350.104 58.1683 350.97 57.1811 352.078 56.478C353.193 55.7749 354.489 55.4233 355.966 55.4233C357.444 55.4233 358.736 55.7749 359.844 56.478C360.959 57.1811 361.826 58.1683 362.444 59.4396C363.069 60.7109 363.381 62.1989 363.381 63.9034C363.381 65.5937 363.069 67.071 362.444 68.3352C361.826 69.5994 360.959 70.5831 359.844 71.2862C358.736 71.9893 357.444 72.3409 355.966 72.3409ZM355.966 70.0824C357.089 70.0824 358.012 69.7947 358.736 69.2195C359.461 68.6442 359.997 67.8878 360.345 66.9503C360.693 66.0128 360.867 64.9972 360.867 63.9034C360.867 62.8097 360.693 61.7905 360.345 60.8459C359.997 59.9013 359.461 59.1378 358.736 58.5554C358.012 57.973 357.089 57.6818 355.966 57.6818C354.844 57.6818 353.921 57.973 353.197 58.5554C352.472 59.1378 351.936 59.9013 351.588 60.8459C351.24 61.7905 351.066 62.8097 351.066 63.9034C351.066 64.9972 351.24 66.0128 351.588 66.9503C351.936 67.8878 352.472 68.6442 353.197 69.2195C353.921 69.7947 354.844 70.0824 355.966 70.0824ZM367.219 72V55.6364H369.648V58.1932H369.861C370.202 57.3196 370.752 56.6413 371.512 56.1584C372.272 55.6683 373.185 55.4233 374.25 55.4233C375.33 55.4233 376.228 55.6683 376.946 56.1584C377.67 56.6413 378.235 57.3196 378.64 58.1932H378.81C379.229 57.348 379.858 56.6768 380.696 56.1797C381.534 55.6754 382.539 55.4233 383.711 55.4233C385.174 55.4233 386.37 55.8814 387.301 56.7976C388.231 57.7067 388.696 59.1236 388.696 61.0483V72H386.182V61.0483C386.182 59.8409 385.852 58.978 385.191 58.4595C384.531 57.9411 383.753 57.6818 382.858 57.6818C381.708 57.6818 380.816 58.0298 380.184 58.7259C379.552 59.4148 379.236 60.2884 379.236 61.3466V72H376.679V60.7926C376.679 59.8622 376.377 59.1129 375.774 58.5447C375.17 57.9695 374.392 57.6818 373.441 57.6818C372.787 57.6818 372.176 57.8558 371.608 58.2038C371.047 58.5518 370.593 59.0348 370.245 59.6527C369.904 60.2635 369.733 60.9702 369.733 61.7727V72H367.219Z" fill="#858585"/>
<circle cx="537.5" cy="121.5" r="0.5" fill="#D9D9D9" fill-opacity="0.02"/>
</svg>
