<svg width="76" height="76" viewBox="0 0 76 76" fill="none" xmlns="http://www.w3.org/2000/svg">
<path d="M69.4688 23.7856C68.8 23.0278 67.9776 22.4209 67.0563 22.0053C66.135 21.5896 65.1357 21.3748 64.125 21.375H47.5V16.625C47.5 13.4756 46.2489 10.4551 44.0219 8.22811C41.7949 6.00111 38.7744 4.75 35.625 4.75C35.1838 4.74968 34.7512 4.87229 34.3757 5.10406C34.0003 5.33583 33.6968 5.66761 33.4994 6.06219L22.2834 28.5H9.5C8.24022 28.5 7.03204 29.0004 6.14124 29.8912C5.25044 30.782 4.75 31.9902 4.75 33.25V59.375C4.75 60.6348 5.25044 61.843 6.14124 62.7338C7.03204 63.6246 8.24022 64.125 9.5 64.125H60.5625C62.2983 64.1256 63.9747 63.4925 65.2768 62.3446C66.5789 61.1966 67.4171 59.6129 67.6341 57.8906L71.1966 29.3906C71.3228 28.3873 71.2341 27.3685 70.9362 26.4021C70.6382 25.4357 70.138 24.5438 69.4688 23.7856ZM9.5 33.25H21.375V59.375H9.5V33.25ZM66.4822 28.7969L62.9197 57.2969C62.8474 57.871 62.5679 58.3989 62.1339 58.7815C61.6999 59.1642 61.1411 59.3752 60.5625 59.375H26.125V31.4361L37.0233 9.63656C38.6385 9.95985 40.0919 10.8328 41.136 12.107C42.1801 13.3811 42.7505 14.9777 42.75 16.625V23.75C42.75 24.3799 43.0002 24.984 43.4456 25.4294C43.891 25.8748 44.4951 26.125 45.125 26.125H64.125C64.462 26.1249 64.7952 26.1965 65.1024 26.3351C65.4096 26.4737 65.6838 26.676 65.9068 26.9288C66.1298 27.1815 66.2964 27.4788 66.3956 27.8009C66.4948 28.123 66.5243 28.4625 66.4822 28.7969Z" fill="black"/>
</svg>
