<svg width="76" height="76" viewBox="0 0 76 76" fill="none" xmlns="http://www.w3.org/2000/svg">
<path d="M68.875 14C69.5711 14 70.2392 14.2764 70.7314 14.7686C71.2237 15.2608 71.5 15.9288 71.5 16.625V35.625C71.5 36.3212 71.2237 36.9892 70.7314 37.4814C70.2392 37.9736 69.5711 38.25 68.875 38.25C68.1791 38.2499 67.5117 37.9734 67.0195 37.4814C66.5272 36.9892 66.25 36.3212 66.25 35.625V22.9609L42.2324 46.9824C41.9888 47.2263 41.6993 47.4197 41.3809 47.5518C41.0622 47.6839 40.72 47.752 40.375 47.752C40.0302 47.7519 39.6887 47.6838 39.3701 47.5518C39.0516 47.4197 38.7623 47.2263 38.5186 46.9824L28.499 36.9609L8.98242 56.4824C8.48991 56.9748 7.82146 57.251 7.125 57.251C6.42873 57.2509 5.76097 56.9747 5.26855 56.4824C4.77602 55.9899 4.49902 55.3215 4.49902 54.625C4.49902 53.9285 4.77602 53.2601 5.26855 52.7676L26.6436 31.3926C26.8873 31.1487 27.1766 30.9553 27.4951 30.8232C27.8137 30.6912 28.1552 30.6231 28.5 30.623C28.845 30.623 29.1872 30.6911 29.5059 30.8232C29.8243 30.9553 30.1138 31.1487 30.3574 31.3926L40.375 41.4131L62.5391 19.25H49.875C49.1791 19.2499 48.5117 18.9734 48.0195 18.4814C47.5272 17.9892 47.25 17.3212 47.25 16.625C47.25 15.9288 47.5272 15.2608 48.0195 14.7686C48.5117 14.2766 49.1791 14.0001 49.875 14H68.875Z" fill="#27AE60" stroke="#27AE60" stroke-width="0.5"/>
</svg>
